<?xml version="1.0"?>
<svg xmlns="http://www.w3.org/2000/svg" xmlns:xlink="http://www.w3.org/1999/xlink" xmlns:svgjs="http://svgjs.com/svgjs" version="1.1" width="512" height="512" x="0" y="0" viewBox="0 0 512 512" style="enable-background:new 0 0 512 512" xml:space="preserve" class=""><g><circle xmlns="http://www.w3.org/2000/svg" cx="216" cy="112" r="80" fill="#1f6e72" data-original="#000000" style=""/><path xmlns="http://www.w3.org/2000/svg" d="m272 384a96 96 0 1 0 96-96 96.108 96.108 0 0 0 -96 96zm42.343 18.343a8 8 0 0 1 11.314 0l25.1 25.1 58.587-87.881a8 8 0 0 1 13.312 8.876l-64 96a8 8 0 0 1 -5.868 3.523q-.395.039-.789.039a8 8 0 0 1 -5.656-2.343l-32-32a8 8 0 0 1 0-11.314z" fill="#1f6e72" data-original="#000000" style=""/><path xmlns="http://www.w3.org/2000/svg" d="m272.6 442.613a111.947 111.947 0 0 1 71.217-167.976c-31.117-42.497-77.107-66.637-127.817-66.637-45.522 0-87.578 19.485-118.421 54.865-31.062 35.633-48.565 85.3-49.536 140.291 18.364 9.261 93.769 44.844 167.957 44.844a312.1 312.1 0 0 0 56.6-5.387z" fill="#1f6e72" data-original="#000000" style=""/></g></svg>
